<svg id="Layer_10" data-name="Layer 10" xmlns="http://www.w3.org/2000/svg" viewBox="0 0 1000 1000"><title>srcfile</title><path d="M473.23,324.22c12.06-5.6,14.57-6,27.24-10.05,53.56-17.13,86-5.67,145.45-2,15.62,1,53.12,3.63,60.53,7.81-28.14,18.25-61.35,33.07-89.87,50.71-24.3,15-48.71,31.69-76.65,37.64-16,3.41-150.56-3.22-176.22-9.83-9.82-2.52-13.49-3.83-6.95-12.09,11.71-14.79,32.81-20.24,48.91-28.72Q439,340.14,473.23,324.22Z" style="fill:#ffe878"/><path d="M539.62,448.22c-6-3.67-13.4-4.23-20.25-5l-25.19-2.86L391.06,428.62l-26-2.95c-7.72-.88-15.6-2.24-23.39-2.1-11.63.21-22.18,5.12-24.81,16.77-2.1,9.29.16,18.76.36,28.1.36,16.64.84,33.27,1.73,49.9q2.63,49.49,8.89,98.73c1,7.61,1.88,15.25,3.11,22.83,1.09,6.65,3,13.19,7.24,18.64,7.66,9.77,20.09,14.49,31.82,18a782.37,782.37,0,0,0,96.27,22q24.26,4.08,48.72,6.77c6.16.68,15.15,3.18,19.9-2.07a12.67,12.67,0,0,0,2.78-7.08c.6-4.32.93-8.69,1.25-13,.6-8,.93-16,1.26-24l4.16-100.22q1-24.75,2.06-49.51c.29-6.9.29-13.87,1-20.75.52-5,1.28-9.89,1.54-14.87C549.49,464.56,548.44,453.64,539.62,448.22Z" style="fill:#549e0d"/><path d="M742.37,462.86c.6-33.56,2.66-70.07-5.09-102.94-.72-3.05-1.69-6.28-4.18-8.29-5-4.08-12.61-.94-18.27,2.3-39.18,22.44-75,51.9-110.7,79.45-5.5,4.23-11.06,8.58-15,14.22-4.81,6.94-6.76,15.33-8.2,23.57-4.51,25.76-4.93,52-4.84,78.14q.27,74.73,6,149.32c.21,2.76.55,5.79,2.64,7.68,4.06,3.65,10.53.25,14.81-3.17q55.89-44.55,110.07-91.06c8.79-7.55,17.73-15.36,23.25-25.4,7.38-13.43,7.81-29.27,8.08-44.47Q741.68,502.54,742.37,462.86Z" style="fill:#ff5d1d"/><path d="M759.27,370.72q-.37-31-1.16-62a3.54,3.54,0,0,0-1.11-2.57,3.77,3.77,0,0,0-2.81-1.21c-24.29-.5-48.61-2.67-72.86-4.74A1309.46,1309.46,0,0,0,542.86,289.7c-10.55-.67-21.14-1.32-31.7-1.2-7.3.08-12.91,2.24-19.49,5.22-18.72,8.47-37,18-55.06,27.82a2.83,2.83,0,0,0-.82.45l-1.53.83Q399,341.09,364.6,360.93a3.13,3.13,0,0,0-3.28,1.9q-25,14.46-49.44,29.74a2.88,2.88,0,0,0-1.22,1.42l-.12.07c-2,1.3-4,2.61-5.91,4a3.82,3.82,0,0,0-1.68,2.76,3.93,3.93,0,0,0-.74-.52,22,22,0,0,0-5.67,7.56Q302.63,513,311.91,617.9q2.68,30.4,5.65,60.78c0,.1,0,.18.05.28a12.52,12.52,0,0,0,.11,2.58,3.84,3.84,0,0,0,1.41,6.61C369.32,703,420.3,715.27,471.33,727.2a3.69,3.69,0,0,0,3,.71q18.27,4.26,36.53,8.52,24.69,5.77,49.36,11.66c.89,4,7.77,3.71,7.74-.86v-.45a4.09,4.09,0,0,0,.48-.29c51.24-36.35,97.86-77.88,145.07-118.87q19.59-17,39.52-33.64a3.75,3.75,0,0,0,3.65-3.63Q760.56,480.58,759.27,370.72ZM666,305.37c8.47.84,16.94,1.59,25.43,2.16q24.14,3.23,48.18,7.14-19.77,11.4-39.27,23.21l-4.34.77a3.2,3.2,0,0,0-2.12-1l-38.76-3.88c-15.54-.41-31.09-1.86-46.61-3.11a287.5,287.5,0,0,1,55.69-23.76A2.85,2.85,0,0,0,666,305.37ZM544.49,373.28l0,0a186.3,186.3,0,0,1,29.93-21.59c5.47-3.18,11.41-6.56,17.55-9.38l28.5-5.89c3,.25,5.9.63,8.79.92l22,2.21,39.72,4c-20.69,12.61-41.22,25.45-61.73,38.34a3.24,3.24,0,0,0-1.62-.51l-50.86-2.74-25.42-1.38c-1.44-.07-2.88-.17-4.32-.27a5,5,0,0,1-2.07-1.37A3.49,3.49,0,0,0,544.49,373.28Zm-90.44.4a3.53,3.53,0,0,0,.9.15q35,1.07,70,3.15c-13.55,2.18-26.06,10.69-37.5,17.49-11.78,7-23.16,14.61-34.18,22.69q-36.24-3-72.45-6.43C394,400.6,409,393,424,385.84q11.55-5.47,23.15-10.89A44.68,44.68,0,0,1,454.05,373.68Zm-6.66-8.41,1.33-.31a4.32,4.32,0,0,0-.16.51,4.36,4.36,0,0,0-.83-.17Zm32.54,3.32a32.32,32.32,0,0,1-11.91-.47l-.84,0,.35-.07c-1.38-.29-2.76-.62-4.13-1a6.32,6.32,0,0,1-1.09-2.73c17.79-10.42,35.74-20.55,53.91-30.23,1-.34,2-.65,3.08-.92,23.46.75,46.94,1.23,70.39,2.07a166.81,166.81,0,0,1-19.86,12,193.23,193.23,0,0,0-26.19,18.6c-3.61,1.68-7.12,3.54-10.56,5.55Q506.53,369.68,479.93,368.59Zm23-35.28.39-.72.85,0Zm83.1-36q7.83.45,15.66,1l1.18.21c12.91,1.25,25.82,2.75,38.74,4.2l.75-.42a70.57,70.57,0,0,1,8,.78h0a3.12,3.12,0,0,1,0,.61l3.06.34a294.18,294.18,0,0,0-53.51,24.56c-23.07-.95-46.17-1.45-69.27-2.11q26.45-13.67,53.61-25.92A2.78,2.78,0,0,0,586,297.35ZM457.66,317.62l1.5-.75,1.61.07c1.86-1.24,3.72-2.47,5.6-3.67,4.68-2.32,9.37-4.59,14.07-6.87l1-.41a1.65,1.65,0,0,0,.44-.28q9.63-4.65,19.31-9.18l.4-.12a3,3,0,0,1,2.16.16l.1,0a2.88,2.88,0,0,1,2.5-1.22h.61l.09,0a2.85,2.85,0,0,0,1.25.24c22.5-.27,45,.2,67.42,1.28-20.09,9.14-39.84,18.94-59.32,29.24-19.74-.65-39.46-1.54-59.14-3l0-4.73A8.18,8.18,0,0,1,457.66,317.62ZM437,328.16a3.93,3.93,0,0,0,1,.24c20.6,2,41.25,3.21,61.93,4.05-.74,1.29-1.51,2.55-2.34,3.77q-20.85,11.44-41.35,23.54a100.86,100.86,0,0,1-21,4.48c-20-1.33-40.14-1.08-60.13-2.44Q405.74,344.36,437,328.16ZM312.93,401.64a3.11,3.11,0,0,1,1.41-3.38,29.27,29.27,0,0,1,4.06-2.16,4.4,4.4,0,0,1,.18-.62q22.21-13.8,44.84-26.93a4.39,4.39,0,0,0,1.36.38c21.53,2.17,43.27,1.84,64.9,3a3.79,3.79,0,0,1,.23.91,15.81,15.81,0,0,1-4.07,4.09,1.68,1.68,0,0,0-.69,1.56l-5.61,2.65-2.33,1.12-3.79,2a5.87,5.87,0,0,1-1.62.61c-14.12,7-27.79,14.83-39.8,25q-7.75-.75-15.5-1.52-19.85-2-39.67-4.15a2.66,2.66,0,0,1-2.3-.24l-4.37-.47C311.08,402.86,312,402.25,312.93,401.64ZM339.14,686l-.15-.14a47.52,47.52,0,0,1-14.47-16.51c-.3-3.1-.58-6.21-.88-9.31,1.84,6.26,4.26,12.31,8.22,17.58a38.82,38.82,0,0,0,9.17,8.9Zm220.55,40.22a1.63,1.63,0,0,0-.29-.23c0-.38-.09-.77-.15-1.16.17-.5.33-1,.49-1.5C559.75,724.31,559.73,725.28,559.69,726.24Zm-.57-13.92a66,66,0,0,1-2.61,11.51,1.76,1.76,0,0,0-.24.42c-.23.66-.45,1.31-.65,2-2,4.9-5.16,9.06-10,10.59q-34.62-8.2-69.28-16.25l-5.46-86.82q31,3.69,62.11,6.8c4.07.41,4-5.74,0-6.15q-31.28-3.17-62.49-6.86-3.24-51.45-6.47-102.91l-.37-5.94q25.08,2.73,50.24,4.74c4.09.32,4.07-5.83,0-6.15q-25.35-2-50.63-4.79L460.47,468c-.25-3.93-6.62-4-6.37,0q1.38,21.89,2.75,43.76-37.86-4.29-75.48-10.24-.22-5.53-.43-11.06-1-26-1.85-52.05c-.13-3.95-6.5-4-6.37,0q1,31.05,2.25,62.08-24.36-3.94-48.59-8.59c-4-.77-5.72,5.16-1.69,5.93q25.19,4.83,50.53,8.91c1.42,36,2.95,72,4.32,108q-18.17-3-36.26-6.4c-4-.76-5.72,5.16-1.7,5.93q19.05,3.6,38.19,6.72.86,23,1.62,45.92c.13,3.94,6.5,4,6.37,0q-.74-22.46-1.59-44.89c26,4.16,52.12,7.73,78.29,10.91l2.23,35.47q1.57,25.3,3.17,50.61c-27.87-6.55-55.72-13.22-83.45-20.33a67.26,67.26,0,0,0,1.32-18.18c-.26-3.93-6.63-4-6.37,0a61.55,61.55,0,0,1-1.1,16.59l-7.45-1.93q-9.4-2.48-18.8-5c.35-.29.5-.6,0-.8-8.27-3.21-14.86-6.88-20.18-14.26-4.71-6.53-7.93-14-10.78-21.48q-2-21.17-3.87-42.34L330,613.06c4,.67,5.73-5.26,1.69-5.93L318.62,605q-6.09-70.31-10.76-140.72-1.23-18.72-2.34-37.43c.41-1.37.85-2.72,1.34-4.05,1.5-4.11,3.67-7.06,8.23-8,2.85-.56,6,0,8.84-.16a3.15,3.15,0,0,0,.75-.26c5.84.15,11.7.2,17.54.06q14.46,1.5,28.93,2.93v7.46c0,4,6.37,4,6.37,0V418q35.82,3.44,71.69,6.36L451.55,452c.33,3.92,6.7,4,6.37,0q-1.16-13.57-2.3-27.14,23.61,1.89,47.24,3.58,17.94,1.27,35.89,2.37c10.94,5.21,18.6,15.89,19,28.23a1.11,1.11,0,0,0,.57,1l.39,60c-7.41,1.46-15.14.13-23.14-.6-4.07-.37-4,5.78,0,6.15,8.05.73,15.75,1.81,23.18.69q.33,52.65.67,105.32c-3.87,2.49-8.86,3.13-14.07,2.78-5-.34-5,7.23,0,7.56a33.83,33.83,0,0,0,14.12-1.87q.12,18.32.23,36.63.12,17.28.22,34.54A1.18,1.18,0,0,0,559.12,712.32Zm-95.05-85.56c-26.12-3.19-52.18-6.78-78.14-11-1.38-36-2.9-72-4.32-108q37.68,5.93,75.63,10.2Q460.65,572.36,464.07,626.76ZM546.3,431.29h.11a15.89,15.89,0,0,1,4.76,1.59,13.43,13.43,0,0,1,2.34,3.45A30.56,30.56,0,0,0,546.3,431.29Zm13.86-6.24a4,4,0,0,0-2-.6q-47.75-2.7-95.42-6.53,14.16-10,29.14-18.88c12.21-7.2,25.25-16.18,40-16.5,15.43-.32,31.11,1.44,46.51,2.27L621,387.1l-17.91,11.26Q581.66,411.8,560.16,425.05Zm6.4,99.11a32,32,0,0,0,4.79-2.52l.4-.25.3-.23Q600.9,499.88,630,478.87l.93,99.55q-13,10-26.11,20-17.14,13.05-34.46,25.89a4.17,4.17,0,0,0-3.15-1Zm1.24,194.39c0-.56,0-1.13,0-1.69a23.36,23.36,0,0,0,1.69,2.46,21.46,21.46,0,0,0,3.76,3.68A16.15,16.15,0,0,1,567.8,718.55Zm183.56-233a43.13,43.13,0,0,0-10,9.36c-1,1.34-.21,3.43,1.15,4.21a3.33,3.33,0,0,0,4.35-1.1,33.59,33.59,0,0,1,4.39-4.61q-.25,17.49-.62,35-.51,23.13-1.28,46.27c-1.75,4.68-2.94,9.46-5.63,13.84A43.57,43.57,0,0,1,738,596c-1.57,1.61-3.45,2.89-4.78,4.69q-14.26,12.09-28.35,24.39v-5.27c0-3.95-6.37-4-6.37,0v9.89a3.14,3.14,0,0,0,.12.83c-19.94,17.39-39.82,34.85-60.09,51.87a33.59,33.59,0,0,1,.12-6.79c.47-3.92-5.9-3.89-6.36,0a35.63,35.63,0,0,0,.52,11.57Q621,697,608.88,706.62q-10.71,8.5-21.66,16.7a12.69,12.69,0,0,1-1.69.35,1.36,1.36,0,0,0-1.46.11c-5.71.08-10.94-3.68-13.87-8.74a25.37,25.37,0,0,1-2-4.28c.08-.27.15-.54.24-.8a1.3,1.3,0,0,0-.76-1.69q-.22-36.51-.46-73a20.85,20.85,0,0,0,2.41-2.85,3.68,3.68,0,0,0,.45-.28c20.47-15.09,40.69-30.5,60.85-46l.12,13.51q.25,26.85.5,53.69c0,4,6.41,4,6.37,0q-.33-36-.67-72.05c20.54-15.78,41.05-31.61,61.74-47.21l.39-.29q-.1,9.08-.22,18.15-.35,26-.81,52c-.07,3.95,6.3,4,6.37,0q.66-37.5,1.08-75,15.6-11.69,31.37-23.13c3.24-2.35.07-7.69-3.22-5.31q-14.12,10.23-28.06,20.69.51-49.2.61-98.4,13.62-10.14,27.17-20.39c3.21-2.44-1.32-6.76-4.51-4.34q-11.28,8.55-22.65,17,0-24.15,0-48.31c0-4-6.38-4-6.37,0q.09,26.54,0,53.06-31.81,23.63-63.95,46.83v-.49l-.51-53.69c0-3.95-6.4-4-6.36,0l.55,58.77q-12.69,9.21-25.37,18.44-18,13.13-36,26.37c-.67.44-1.34.84-2,1.21q0-9.13-.11-18.27-.18-26.76-.34-53.53a35.72,35.72,0,0,1,9.81-21.19q25.92-16.05,51.67-32.36a5.08,5.08,0,0,1,.77,4.85c-1.23,3.78,4.92,5.4,6.14,1.64a11.06,11.06,0,0,0-1.56-9.86c21.73-13.68,43.49-27.31,65.45-40.65a26.23,26.23,0,0,1,.35,9c-.49,3.91,5.88,3.88,6.37,0a30.26,30.26,0,0,0-1-12.41c2.41-1.46,4.81-2.93,7.23-4.38q15.25-9.12,30.67-18a18.23,18.23,0,0,1,8.29,8,1.55,1.55,0,0,0,.53.55q.57,27.38.81,54.75a26.21,26.21,0,0,0-9.55,6.41c-2.75,2.93,1.74,7.29,4.5,4.35a20.36,20.36,0,0,1,5.12-4Q752,438.87,751.36,485.54ZM636.3,474.28Q667.21,451.83,698,429.2l2.2-1.64q-.12,49.23-.65,98.45c-20.89,15.69-41.58,31.63-62.29,47.55ZM392,504.13c-3.15-2.89-5.93-5.62-7.72-9.6-1.58-3.53-2.17-7.45-3.34-11.11a1.74,1.74,0,0,0-1.57-1.19,2.28,2.28,0,0,0,0-.26c0-.71-1.31-.22-1.47.22,0,.06-.05.12-.07.19-1.61.41-3.27,1.55-3.58,2.55a15.41,15.41,0,0,0-.51,6.74,62.25,62.25,0,0,1-4.4,7.32c-1.73-.35-3.47-.67-5.22-.93-1.29-.2-6.63,2.18-3.87,3.25a18.32,18.32,0,0,0,5.2,1.2c6.19,6.29,10.33,14,10.16,23.1-.07,3.19,7.16,1.59,7.25-1.07.16-4.73.41-14.7,6.07-16.37C390,507.86,393.81,505.8,392,504.13Zm-17.91.33a2,2,0,0,0,.31-.21,15.1,15.1,0,0,0,2.89-3.66,25.33,25.33,0,0,0,5.36,5.84,15.94,15.94,0,0,0-3.56,4.06A24.33,24.33,0,0,0,374.08,504.46Zm100,8.27c-7.42-.68-8.69-10.13-10.22-15.69-.73-2.69-6.73-.57-7.07,1.6a17.78,17.78,0,0,1-2.38,7.12c-2.09,3.28-4.16,3.53-7.67,2.8-1.14-.23-6.2.87-5.1,2.93a5.45,5.45,0,0,0,4.39,2.77c6.69,7.07,11.25,16,11.57,25.84h0c0,.2,0,.4,0,.61.22,2.71,7.85.84,7.81-1.77,0-1.08-.1-2.16-.21-3.22-.13-7.69,3.25-15.48,9.82-19.77C477.16,514.61,476.23,512.92,474.12,512.73Zm-12.53,10.89a29.29,29.29,0,0,0-9.24-10.24,17.68,17.68,0,0,0,2.13-.93,13.42,13.42,0,0,0,4.77-4.23,14.51,14.51,0,0,0,8.46,8A32.37,32.37,0,0,0,461.59,523.62Zm-63.53,93.75a8.69,8.69,0,0,0-1.24.13s0,0-.06-.07c-7.12-6.29-13.11-14.72-14.92-24.2-.24-1.27-3.56-.35-3.54.8.12,6.73-.16,17.44-9.07,18.12-.79.06-2.37,1.24-1,1.69l.29.08c-1.21.5-2.12,1.44-1,2.23a36.26,36.26,0,0,1,14.38,20.42c.44,1.65,4.16.36,4.35-1,.38-2.59.79-5.17,1.2-7.75a29.3,29.3,0,0,1,2.93-3.2c2.51-2.39,5.53-3.29,8.27-5.21C399.84,618.63,399.55,617.33,398.06,617.37Zm-26.37-3.21a12.32,12.32,0,0,0,7.93-4.69,12.66,12.66,0,0,0,2.45-5.19,49.91,49.91,0,0,0,7.53,11.87,19.35,19.35,0,0,0-2.75.32c-.93.18-2.54.71-2.7,1.85-.39,2.67-.71,5.35-1,8A31.38,31.38,0,0,0,371.69,614.16Zm16.72,7.74c.14-.9.28-1.8.4-2.71a15.83,15.83,0,0,1,3,.22A22.71,22.71,0,0,0,388.41,621.9Zm94.51,10.37a24,24,0,0,1-10.85-10.14c-2.23-4-2-8.26-3.45-12.4-.41-1.14-2-.74-3,0-.83-.32-2.43.25-2.16,1.09,2.93,9.33-7.77,13.62-15,15.3-.63.15-2.23,1.31-1,1.88,11,5.36,19.14,15.5,19.38,27.77-.11,1.38-.17,2.76-.21,4.14-.07,2.19,4.66,1,4.93-.73a30.09,30.09,0,0,0,.27-5.92c.56-7.39,2.37-15.54,9.67-18.33C482.2,634.61,484.67,633.1,482.92,632.27ZM469.49,643.1a28.32,28.32,0,0,0-15.85-16,20.49,20.49,0,0,0,9.54-4.39,13.44,13.44,0,0,0,2-2.21c2.24,5.58,7.28,10.62,12.07,13.37A19.27,19.27,0,0,0,469.49,643.1ZM641.56,465.42c-5.1,3-7.26-4.71-6.66-7.86.24-1.28-1.72-1.09-3-.5a32.56,32.56,0,0,0-.92-9c-.13-.55-1.55-.15-1.54.35.43,11.92-4.72,25.66-14.39,33.08-1.23.94-.25,1.68.94,1.6,7.94-.57,14.18,7.74,13.54,15.18-.2,2.27,4.92,1.11,5.21-.77,1.67-10.82,3.36-22.07,10.45-30.84C647.13,464.24,642.66,464.78,641.56,465.42Zm-10,21.6A15.56,15.56,0,0,0,628,483.8a3.87,3.87,0,0,0,1.88-1.16c1.81-2.33,3.68-4.61,5.33-7A64.14,64.14,0,0,0,631.56,487Zm5.12-14.45a1.81,1.81,0,0,0-1.46-.86,4.67,4.67,0,0,0-3.7,1.26,76.57,76.57,0,0,0-5.24,6.43,7.74,7.74,0,0,0-1.89,2.53l0,0a18,18,0,0,0-5-1,34.68,34.68,0,0,0,11.23-16.2c1.43,2.66,4.87,4,8.44,3.9A41,41,0,0,0,636.68,472.57Zm76.85-60.07c-5.42,2.14-8.68-4.24-9.92-8.39a1,1,0,0,0-1-.67,46.16,46.16,0,0,0-.29-5c0-.37-1-.1-1,.23a52,52,0,0,1-.49,5.33,1.87,1.87,0,0,0-.84.91,7.13,7.13,0,0,0-.11,4,54,54,0,0,1-12.06,22.75c-.89,1,.34,1.68,1.34,1.46,8.58-1.94,11.61,7.86,13.22,14.18.37,1.43,3.8.35,3.89-.88.91-11.48,1.62-23.77,9.78-32.72C717.54,412.06,714.39,412.17,713.53,412.5ZM703,438.14a21.25,21.25,0,0,0-2-3,6.22,6.22,0,0,0,1.51-.51,5.06,5.06,0,0,0,1.11-.71C703.3,435.33,703.11,436.73,703,438.14Zm1-6.44a3.29,3.29,0,0,0-.63-.73c-.5-.45-1-.93-1.5-1.36a12.46,12.46,0,0,0-1.7-1.07c-.19-.12-.57-.32-.86-.54a.93.93,0,0,0-.2-.66c-.78-1-2.64-.26-3.32.49-1,1.11-.56,2.24-.08,3.43a11,11,0,0,0-3.21-.62,39.83,39.83,0,0,0,9.3-18.65c2.26,2.12,6,3.15,9.33,3.06A39.57,39.57,0,0,0,703.94,431.7ZM644.49,569.87c-7.18,3-7.93-12.46-9.21-15.76-.42-1.09-2.6-.45-3.13.23-1.7,2.18-1.85,5.26-1.16,8.23a78.26,78.26,0,0,1-1.85,8c-1.4,4.88-3.85,9.19-5.81,13.77a5.74,5.74,0,0,0-1,2.51c-.19,1.33,1.27,1.21,2.57.73l-.3.37a1,1,0,0,0,.07,1.19c4.2,4.47,5.47,9.93,6.26,15.83.27,2,4.72.24,5.05-1.15a14.8,14.8,0,0,0,.44-3.51c1-.25,2.05-1,2-1.81A38.71,38.71,0,0,1,647,571.13C648.51,569.38,645.43,569.47,644.49,569.87Zm-14.08,17.81a1.85,1.85,0,0,1,.38-1.49c.25.52.5,1,.76,1.55a10.6,10.6,0,0,1,.43,1.56C631.52,588.85,630.53,588.12,630.41,587.68Zm5.13-.39c-.71-2.54-1.93-4.66-4.65-5.47a6.94,6.94,0,0,0-1.27-.24,43.77,43.77,0,0,0,3.66-13.48,14.42,14.42,0,0,0,.9,1.28,9.21,9.21,0,0,0,7.72,3.54A43.09,43.09,0,0,0,635.54,587.29Zm79.81-72.39a21.76,21.76,0,0,0-2.9,1.87,15.11,15.11,0,0,1-4.67-3.38,12.15,12.15,0,0,1-3.12-10.47c.12-.59-1.19-.25-1.36.1a13.11,13.11,0,0,0-.69,1.84c-.1-.37-.18-.73-.29-1.1s-.74-.07-.74.17a43.53,43.53,0,0,1-4.16,18.81,45.55,45.55,0,0,1-4.48,7.74c-1.43,1.95-3.45,3.42-4.28,5.7-.44,1.22,2.14.7,2.52.53a14.25,14.25,0,0,0,3.28-2.1,16.81,16.81,0,0,1,4.55,7.73,15.78,15.78,0,0,1,.59,5.29c-.13,1.7-.85,2.72.08,4.24.68,1.1,2.93,0,3.57-.55,2.52-2.2,2.3-6.44,1.24-9.73a63,63,0,0,1,4.32-12.11c1.56-3.27,4.05-6,6.16-8.94l.46-.09c.6-.15,2.06-1.19,1-1.76l-.14-.06a19.78,19.78,0,0,0,1.54-2.91C718.4,514.3,716.06,514.52,715.35,514.9Zm-13.79,21.44a14.14,14.14,0,0,0-5-3.73,30.5,30.5,0,0,0,5.75-10,27.5,27.5,0,0,0,1.48-7.61,11.06,11.06,0,0,0,5.27,5A34.34,34.34,0,0,0,701.56,536.34Zm-248.35-172-3.47.85-1.52.41q-4.29,2.26-8.57,4.57a13.24,13.24,0,0,0-2.67,4.09c-.36.87,1.25.5,1.56.17,4.18-4.52,11.28-5.63,17-6.6,2.32-.4,4.68-.71,7-1C459.41,366,456.28,365.05,453.21,364.36Z"/></svg>