<svg id="Layer_10" data-name="Layer 10" xmlns="http://www.w3.org/2000/svg" viewBox="0 0 1000 1000"><title>srcfile</title><path d="M612.6,378.31l-.24-30.06q1.64-1.39,3.26-2.8c3.69-3.22-1.7-8.57-5.37-5.37l-1.08.93a4.48,4.48,0,0,0-.73-.05l-13.89-2.57c-2-10.55-3.92-21.1-6-31.63a3,3,0,0,0-.17-.55c2.43-2,4.86-4,7.28-6,1.29,3.52,7.42,3.11,7.34-1.3,0-1.61,0-3.22-.07-4.83,1-.85,2-1.69,3-2.54,3-2.56.08-6.53-3.1-6.32-.11-13.46-.09-26.93-.22-40.39l2.32-1.71c3.43-2.53.9-7.94-2.44-7.21,0-.33,0-.67,0-1-.09-4.88-7.68-4.89-7.59,0,0,.39,0,.78,0,1.17-31.69-.75-63.3-3.53-94.94-5.5,1.47-2.85-1.76-7.06-5.31-5-2.51,1.42-5,2.86-7.52,4.3l-5.54-.28c-3.25-.16-4.32,3.14-3.24,5.44-28.19,16.76-55.51,35-82.6,53.44-1.94-2.45-6.9-1.71-6.83,2.26,0,.1,0,.2,0,.3l-.21,0c-4.86-.45-4.83,7.15,0,7.59l.35,0,.81,43.92-.28-.05c-4.78-.77-6.84,6.55-2,7.33l2.44.38c0,1.37,0,2.74.08,4.11.09,4.88,7.68,4.9,7.59,0,0-1,0-2,0-2.94q9,1.34,17.93,2.49l2.67,18c0,.06,0,.1,0,.16a3.94,3.94,0,0,0-.13,1.73l.21,1.57c-6.8,7.77-14.63,14.59-21.82,22-2.29-1.1-5.63,0-5.52,3.23v.07c-1.2-.1-2.4-.22-3.61-.31-4.87-.36-4.85,7.24,0,7.6,1.3.09,2.59.21,3.89.32.48,12.88,1.12,25.76,2.11,38.61-.75-.05-1.49-.11-2.24-.15-4.89-.26-4.87,7.33,0,7.59,1,.06,2,.13,2.95.21,1,3.52,6.2,3.8,7.27.78,7,.93,13.9,2.3,20.84,3.71,9.92,2,19.92,3.12,29.94,4.49,20.93,2.85,41.79,6.21,62.76,8.77a3.93,3.93,0,0,0,4.69-1.28c30.28-23.1,57.51-50.23,85.55-76.06.61,4.3,7.57,4.13,7.53-.56q0-3.13-.05-6.27l3.93-3.55C619.82,381.62,616,377.13,612.6,378.31Zm-7.55,6.41-5.35,4.84c.12-9.75-1.07-19.44-2.23-29.13a3.81,3.81,0,0,0,1.6-.86c1.9-1.67,3.82-3.3,5.75-4.94Zm-56.74,51.44a2.37,2.37,0,0,0,0,.54c-9.05,8.22-18.21,16.35-27.76,23.95l-1.53-38.52a3.5,3.5,0,0,0,1.48-2.92c6.92-4.41,14-8.61,20.81-13.16a3.84,3.84,0,0,0,1.29-1.42l6.19-1C549,414.45,548.87,425.31,548.31,436.16ZM430.89,411.09q-2.36-17.11-4.69-34.23a3.33,3.33,0,0,0,0-.77,119.4,119.4,0,0,0,13.56-.76c10.41-.83,20.8-2,31.17-3.21l.46-.05,4.17,34.43Q453.27,409.14,430.89,411.09Zm-.18-63c-1-15.17-.67-30.39-1.58-45.57,12.52,1.3,25,2.63,37.55,3.91q.6,22.76,1.18,45.52C455.46,350.8,443.07,349.54,430.71,348.1Zm-6.58-69.67q13.56.78,27.13,1.34c-7.41,5-14.79,10.11-22.17,15.17q-12.79-1.33-25.61-2.59Q413.77,285.35,424.13,278.43Zm37.51-24.34a1.75,1.75,0,0,0,.41.08q12.6,1.05,25.22,1.86c-10.09,6.37-20,13-29.95,19.63q-13.57-.51-27.16-1.25Q445.78,264.07,461.64,254.09ZM489,237.52c8.79.48,17.58,1.06,26.37,1.66q-11.05,6.23-21.83,12.92-12.91-.79-25.8-1.82Q478.33,243.77,489,237.52Zm65.7,4.32q-9.36,6.1-18.67,12.28-17.46-.59-34.91-1.57,11-6.65,22.19-12.82C533.81,240.45,544.27,241.19,554.74,241.84Zm36.85,1.73q-7.85,5.73-15.75,11.37-16.14-.12-32.27-.59,9.2-6.07,18.45-12.08C571.87,242.84,581.72,243.3,591.59,243.57Zm-15.74,62.07a2.43,2.43,0,0,0,.19.89q-12.45,10-25.2,19.69c-.31-14.5-.55-29-.89-43.51l13.43-9.58,11.84-8.46Zm11.93,37.7c-17.38,4.35-34.73,8.5-52.25,11.9-.37-2.49-.75-5-1.12-7.47q12.52-9,24.8-18.42,12.46-2.73,25-5Q586,333.81,587.78,343.34Zm8.19,3,5.68,1q-2.6,2.19-5.16,4.39C596.3,350,596.12,348.17,596,346.35ZM479.86,406q-2.07-17.21-4.16-34.42c18.77-2.19,37.64-4.37,56.24-7.71q1.17,17,2.35,34a2.51,2.51,0,0,0,.08.49Q507.19,402.66,479.86,406Zm-7.65-53.63L471,306.89q7.31.74,14.62,1.45c6.56.64,13.59,2,20.24,1.53q.71,22.78,1.4,45.56C495.6,354.43,483.9,353.43,472.21,352.36ZM512,300.55c-6.71,3.51-15.76,1.22-23,.53q-6-.58-12.1-1.21,13.43-9.48,27-18.78,17.7.15,35.41-.07l-10.77,7.77C523.19,292.7,517.92,297.47,512,300.55Zm18.46,50.05.81,5.45q-5.68,1.06-11.39,2Q525.21,354.35,530.48,350.6Zm-15.69,1.78-1.35-44.19C518,306.26,522,303,526.05,300q9.76-7.19,19.63-14.22c.32,14.56.57,29.13.89,43.69Q530.9,341.22,514.79,352.38Zm30.72-75.79q-17.65.29-35.31.19,13.5-9.22,27.12-18.28,16.26.54,32.55.71Q557.7,267.91,545.51,276.59Zm-42.91.15q-19-.18-37.89-.82c9.9-6.63,19.88-13.14,30-19.42q17.58,1.08,35.18,1.74Q516.19,267.41,502.6,276.74ZM496.43,281q-12.89,8.91-25.65,17.95c-.12.09-.23.19-.33.28q-14.16-1.44-28.34-2.92l-6.37-.67q11.38-7.81,22.83-15.59Q477.5,280.75,496.43,281Zm-3.26,80.82Q484,363,474.83,364.1c-.07-1.3-.09-2.61-.08-3.92Q484,361,493.17,361.81Zm31.88,45.6c-3.89,2.42-7.78,4.86-11.62,7.36q-13.71-1-27.43-1.93Q505.56,410.38,525.05,407.41Zm-53.59,12.43a3.26,3.26,0,0,0,0-.33q19.74,1.2,39.45,2.67a3.54,3.54,0,0,0,.63.53l1.65,41.68c-14.4-1.79-28.75-3.94-43.11-6a2.09,2.09,0,0,0,2.42-2.08Q472.63,438,471.46,419.84Zm67.15-22.22q-1.18-17.26-2.39-34.54c17.68-3.36,35.14-7.77,52.58-12.17,1.26,12.32,3.27,24.58,3.31,37Q565.46,393.24,538.61,397.62Zm54.21-2.17a2.41,2.41,0,0,0,.21.24l-7.75,7.13.33-5.93C588,396.42,590.42,395.94,592.82,395.45Zm-9.41-75.38q-8.17,1.49-16.31,3.17,7.39-5.76,14.7-11.64C582.34,314.42,582.87,317.24,583.41,320.07Zm11.9-29.44q-7.53,6.35-15.16,12.58-.31-20.81-.64-41.61,7.82-5.6,15.58-11.24C595.19,263.78,595.16,277.21,595.31,290.63ZM396.7,299.3q14,1.32,28.06,2.78c.94,15.15.65,30.35,1.58,45.5q-14.44-1.74-28.82-3.89Zm73.72,60.48c0,1.61,0,3.22.12,4.83-8.52,1-17.05,1.91-25.6,2.69-5.85.53-13.89,1.7-19.55,1.23q-1-6.87-2-13.73C439,356.72,454.71,358.32,470.42,359.78ZM419.72,385q1.32,9.61,2.63,19.24-9.72-1.5-19.5-2.57C408.39,396.08,414.25,390.74,419.72,385Zm2.16,66.1c-6.91-1.41-13.82-2.71-20.8-3.57-1-12.87-1.65-25.77-2.14-38.67q11.28,1.13,22.51,2.86a4,4,0,0,0,1.91-.16c.2,1.53.41,3.06.62,4.58a3.39,3.39,0,0,0,1.68,2.22c.6,11.23.71,22.49,1.37,33.72C425.31,451.81,423.59,451.49,421.88,451.14Zm29.1,4.54c-6.56-.88-13.07-1.74-19.57-2.81-.69-11.36-.8-22.74-1.39-34.11q9.51-.83,19-1.76a3.69,3.69,0,0,0,2.78,1.39q7.67.41,15.34.87a2.69,2.69,0,0,0,0,.58q1.17,18.2,1,36.44a2,2,0,0,0,1.64,2Q460.38,457,451,455.68Zm101.82-23q.65-14.89.36-29.79,14.05-2.43,28.06-5.13L580.7,407q-8.58,7.92-17.2,15.81C559.94,426.1,556.37,429.38,552.8,432.65Z"/><path d="M366.85,322a168.15,168.15,0,0,1-15.45,16.79,139,139,0,0,1-13-11.85c-3-2.9-5.9-6.66-9.39-8.95a1.31,1.31,0,0,0-.56-.19h-.39l-.13,0a1.06,1.06,0,0,0-.83,1,4.36,4.36,0,0,0,0,.61c.33,8.26,1.37,16.45,2.4,24.64.51,4.09,1,8.18,1.4,12.28.3,3.18.91,6.65.56,9.86-9.55-9.59-17.76-20.41-27.24-30a2.83,2.83,0,0,0-1.35-1.51c-.37-.35-.77-.67-1.13-1a.93.93,0,0,0-.5-.36,1,1,0,0,0-1,.15,1.22,1.22,0,0,0-.19.12.92.92,0,0,0-.41,1c-1.09,12.54-.59,25.18-2.49,37.64-1.44.36-2.25,1.39-3.31,2.58s.92,2.58,1.94,1.43c.82-.93,1.27-1.69,2.63-1.77a1.22,1.22,0,0,0,1-1.06c1.93-11.91,1.57-24,2.42-36,.2.15.39.31.61.46l.14.07c9.94,10.15,18.5,21.58,28.71,31.49a1.39,1.39,0,0,0,.27.21,1.2,1.2,0,0,0,.23.11h0a1.1,1.1,0,0,0,.26.06l.09,0h.12a1,1,0,0,0,1.06-.73,10.68,10.68,0,0,0,.58-3.93q-.13-3.26-.41-6.51c-.37-4.47-.9-8.93-1.45-13.38-1-7.93-2-15.85-2.48-23.83,2.84,2.38,5.37,5.5,7.93,8,4.22,4.11,8.45,8.39,13.23,11.87a1.23,1.23,0,0,0,1.47,0,167.71,167.71,0,0,0,16.55-17.88C369.78,322.2,367.83,320.79,366.85,322Z"/><path d="M281.1,388.71l6.36-5.39c1.18-1-.34-2.87-1.52-1.87l-6.36,5.4C278.39,387.85,279.91,389.72,281.1,388.71Z"/><path d="M292,379l.47-.42a1.2,1.2,0,1,0-1.52-1.87l-.47.42A1.2,1.2,0,0,0,292,379Z"/><path d="M630,321a30.07,30.07,0,0,1-5.58,2.66c-1.3.52-3.17,1.89-4.51,2-1.61.16-4.56-2.26-5.78-3.1-1.75-1.2-3.43-2.47-5.21-3.63-1.43-.94-2.76,1.36-1.34,2.28,2.15,1.41,4.18,3,6.33,4.39,1.62,1.06,4.07,2.73,6.09,2.82,1.63.07,3.6-1.62,5.13-2.23a32.93,32.93,0,0,0,6.21-2.93C632.72,322.36,631.39,320.07,630,321Z"/><path d="M641.16,317.93q6.47-3.8,12.62-8.05c-4.81,11.41-7.41,23.63-12.34,35a1.34,1.34,0,0,0,1.5,1.94q16.93-4.63,34.26-7.57c-1.16,4.33-2.84,8.52-3.7,12.93-.56,2.83-1.52,6.17.85,8.27,4.84,4.29,10.84,7.47,15,12.55,1.08,1.32,2.94-.56,1.87-1.88-3.73-4.6-9.11-7.87-13.71-11.52-.52-.42-1.69-1.07-2-1.69a8.06,8.06,0,0,1,.15-2.27,29.4,29.4,0,0,1,.68-4.06c1.06-4.61,2.89-9,3.91-13.62a1.34,1.34,0,0,0-1.63-1.62q-17.07,2.79-33.79,7.24c4.86-12.16,7.51-25.14,13.32-36.93.52-1.06-.65-2.65-1.81-1.81q-8,5.81-16.51,10.79A1.33,1.33,0,0,0,641.16,317.93Z"/><path d="M635,320.2l.32-.31"/><path d="M635.72,321l.31-.31a1.06,1.06,0,0,0-1.49-1.5l-.31.31a1.06,1.06,0,0,0,1.49,1.5Z"/><path d="M212,549.56a3.31,3.31,0,0,0-2.25,4c.54,3.55,1,7.11,1.47,10.68a3.33,3.33,0,0,0,3.22,3.22c1.57,0,3.43-1.5,3.22-3.22q-.78-6.21-1.7-12.39C215.72,550.08,213.56,549.16,212,549.56Z"/><path d="M301.93,530.33c-3.78-7.87-7.39-15.81-10.76-23.86-6.62-15.82-12.74-32.06-16.32-48.87-3.64-17.09-5-34.3-5.67-51.72-.64-16.88-1.4-33.83-4.5-50.47-1.41-7.54-2.74-16.45-6.62-23.1-2.86-4.91-5.75-10.69-12-11.62-6.5-1-10.52,4.45-11.29,10.33-1.07,8.18-.9,16.7-1.15,24.93-.26,8.65-.47,17.3-1,25.94-.44,7.75-1.8,15.52-2,23.26-.23,10.44,1,20.94,2,31.31,1,11,2.56,21.93,4.46,32.8a374,374,0,0,1-18-67.12c-4.89-29.06-3.76-59.55-13.92-87.55-2.74-7.54-10.14-18.55-18.82-10.29-3.26,3.1-4.33,7.86-5.15,12.09-.75,3.86-1.5,7.7-2.21,11.56,0,.06-.05.1-.07.16-2.64,7.68-7.7,14.19-10.59,21.76s-3.66,16.07-4.43,24.19a287.46,287.46,0,0,0-.33,53.61c1.58,17,5.24,33.64,8.24,50.39-4.67-10.73-6.17-22.94-8.23-34.36-1.43-7.9-3.1-15.82-6.14-23.29-2.44-6-6.08-15.27-13.88-14.89a3.32,3.32,0,0,0-3.22,3.22c-1.88,25.16.62,50.17,5.14,74.93,4.41,24.18,9.24,48.61,15.44,72.41,12.29,47.11,33.4,91,58.69,132.4A334,334,0,0,1,254.27,766c1.19,4,7.41,2.27,6.21-1.71a340.78,340.78,0,0,0-28.21-66.94c-11.76-21.18-24.81-41.42-35.39-63.27A442.4,442.4,0,0,1,170.39,566c-7-23.87-11.66-48.52-16.54-72.9-3.63-18.19-6.41-36.46-7.33-54.87,4.32-1.47,6.42-4.78,7.29-8.75.39,1.34.77,2.69,1.11,4,1.8,7.19,2.92,14.53,4.22,21.82,2.5,14.09,5.94,28,15.39,39.15.61,4.24,1.15,8.5,1.56,12.77.86,8.94.6,17.93,1.48,26.85,1.6,16.1,7.44,31.34,10.46,47.17.78,4.07,7,2.35,6.21-1.71-2.64-13.81-7.61-27.13-9.68-41-1.23-8.23-.95-16.53-1.5-24.81-.58-8.65-1.7-17.25-3.05-25.81-2.74-17.43-6.81-34.66-9.08-52.16A269.78,269.78,0,0,1,169.58,384c.35-5.51.68-11.15,1.4-16.72a13.44,13.44,0,0,0,3.82-1.87A272.91,272.91,0,0,0,179.69,428c6.59,34.21,18.37,67.18,25.67,101.24.87,4,7.08,2.33,6.21-1.72-6-28-14.94-55.33-21.72-83.19-6.7-27.56-10.44-55.78-8.5-84.17.44-6.34,1.17-12.61,2.08-18.86a5.89,5.89,0,0,0,5.19,1.17c5.5-1.45,9.06-8.78,10.3-13.77.85-3.45-4.47-4.92-5.33-1.47a18.35,18.35,0,0,1-2.43,5.83c-.73,1.12-3,4.56-4.44,3.83-.82-.43-1.52-2.18-2.1-3.16.8-4.84,1.69-9.68,2.61-14.52.58-3,1.79-12.94,6.92-10.94a6.73,6.73,0,0,1,3,3l-1.35,9.39a2.77,2.77,0,0,0,5.25,1.72c.23,1,.44,1.79.61,2.41,7.31,26,6.85,53.48,11.38,80a389.73,389.73,0,0,0,27,89.08,2.53,2.53,0,0,0,2.1,1.66c2.88,14.35,5.62,28.84,6.58,43.36.28,4.11,6.72,4.14,6.45,0-2.15-32.27-12.31-63.48-15.53-95.61-.8-8-1.52-16.1-2.06-24.15-.84-12.3.67-24,1.41-36.27.43-7.19.64-14.39.84-21.59a12.62,12.62,0,0,0,13.15-11c.47-3.51-5.06-3.47-5.52,0s-4.15,5.67-7.46,5.37c.21-7.42.46-14.84,1-22.25.13-1.95.56-5,2.38-6a31.1,31.1,0,0,1,4.33,15.72c0,3.55,5.54,3.56,5.52,0a37.47,37.47,0,0,0-.9-7.95,45.36,45.36,0,0,1,2.55,6.78,167.7,167.7,0,0,1,5,23.68c2.23,16,2.55,32.24,3.2,48.38a268.12,268.12,0,0,0,6,47c3.78,17,10.17,33.49,17,49.52,6.68,15.77,13.29,32.85,24.11,46.28,2.6,3.23,7.13-1.36,4.55-4.56C309.25,545.65,305.62,538,301.93,530.33ZM146.29,432.12c-.16-6.24-.1-12.5.24-18.78a11.09,11.09,0,0,1,1.41,1.76C148.8,420,150.38,428.83,146.29,432.12Zm28.45-76.88a7.52,7.52,0,0,1-2.69,5.44c.4-1.95.84-3.88,1.41-5.78a44.92,44.92,0,0,1,2.58-6.58c-.18,1.67-.33,3.34-.48,5A2.62,2.62,0,0,0,174.74,355.24Z"/><path d="M391,472.52A211.18,211.18,0,0,0,382,438.31c-2.78-7.62-8.17-14.73-17.2-10.7-8.33,3.72-12.75,13.51-15.47,21.6-4,11.89-3.46,23.32-2,35.58,1.64,13.78,4.19,28.12,2.44,42a57.39,57.39,0,0,1-5.29,18.64c-2.35,4.69-4.74,10.68-10.15,12.36-4,1.23-2.26,7.45,1.71,6.21,8-2.49,11.86-10.41,15.07-17.6,4.1-9.2,5.66-19.34,5.56-29.36-.23-23.23-8.79-46.84,0-69.34,1.77-4.5,4.1-8.92,7.75-12.2,1.54-1.38,3.8-2.86,6-2.58a7.12,7.12,0,0,0-1.27.56c-3.49,2-4.89,7-5.9,10.61A48.42,48.42,0,0,0,365,474.7c1.27,3.27,6.61,1.84,5.32-1.47a44.53,44.53,0,0,1-3.19-17.82,41.82,41.82,0,0,1,1.33-9.05c.27-1,2.8-10.16,4.93-7.8a2.37,2.37,0,0,0,2.23.83v0A209.23,209.23,0,0,1,384,470.48a8.51,8.51,0,0,1-7.48,2.26c-3.47-.67-5,4.65-1.47,5.33a14.83,14.83,0,0,0,10.07-1.55c3.79,22.13,4.12,45.13,4.55,67.47.53,27.72,0,55.43,0,83.15,0,4.14,6.44,4.15,6.44,0,0-26.13.48-52.25.09-78.38C395.84,523.47,395.5,497.47,391,472.52Z"/><path d="M384.94,648.74c-5.11,17.86-11.28,35-17.82,52.38-6.8,18.06-12.72,36.45-20.32,54.19-1.61,3.77,3.93,7.06,5.56,3.25,7.58-17.68,13.58-35.95,20.31-54s13.19-35.68,18.48-54.15C392.29,646.46,386.08,644.76,384.94,648.74Z"/><path d="M326.74,558.12l-5.2-1.06a2.83,2.83,0,0,0-3.4,1.92,2.79,2.79,0,0,0,1.93,3.4l5.2,1.06a2.83,2.83,0,0,0,3.4-1.93A2.78,2.78,0,0,0,326.74,558.12Z"/><path d="M390.37,642a13.29,13.29,0,0,1,1.37-6.32"/><path d="M392.79,642a11.35,11.35,0,0,1,1-5.1,2.49,2.49,0,0,0-.86-3.31,2.44,2.44,0,0,0-3.31.87A16.84,16.84,0,0,0,388,642c.05,3.11,4.89,3.12,4.84,0Z"/><path d="M825.44,406.1a3.31,3.31,0,0,0-3.22-3.22c-7.58-.37-11.17,8.38-13.61,14.25-3.19,7.67-4.94,15.79-6.41,23.93-2.06,11.4-3.55,23.59-8.21,34.3,2.61-14.36,5.64-28.66,7.44-43.15a274.22,274.22,0,0,0,1.06-53.59c-.66-9-1.24-18.46-3.68-27.23-2.59-9.31-8.83-16.86-11.95-25.92l0-.07-.21-1.17c-1-5.68-1.72-12-3.91-17.39-3.9-9.63-14-10.15-19.26-1.37-3,5-4.51,11.08-6,16.64a186.31,186.31,0,0,0-4.37,22.58c-2,14.37-2.86,28.86-4.67,43.25a354.87,354.87,0,0,1-18.77,76.21c.29-1.46.57-2.93.83-4.39,1.3-7.34,1.74-14.83,3-22.18,1.47-8.63,2.69-17.07,2.59-25.89-.14-12.34-2.06-24.61-2.59-36.94-.54-12.65-.66-25.32-1.49-37.95-.39-5.83-.83-17.33-8.51-18.5-8.27-1.27-14.08,6.57-16.93,13.13a69.1,69.1,0,0,0-4.38,15.67c-1.25,6.86-2.89,13.74-3.58,20.67-1.35,13.69-.77,27.49-2.16,41.19-.41,4.12,6,4.09,6.44,0,1.08-10.67,1-21.38,1.51-32.08.58-11.57,2.87-23,5.2-34.35a40.83,40.83,0,0,1,4.12-11.19c.05-.1.12-.22.19-.33a37.15,37.15,0,0,0-1.3,9.5c0,3.56,5.5,3.56,5.52,0a31,31,0,0,1,4.31-15.67,3,3,0,0,1,.67.38c2.38,1.77,2.31,9.26,2.46,11.58.35,5.37.57,10.76.76,16.14-3.43.58-7.47-1.6-8-5.3-.46-3.47-6-3.51-5.52,0,.89,6.66,7.07,11.72,13.67,10.88.31,10.05.58,20.1,1.38,30.12.84,10.6,2.18,21,1.56,31.65-.4,7-1.95,13.68-2.91,20.59s-1.54,14-3.07,20.89c-5.48,24.6-10.87,49.26-12.81,74.44-.32,4.13,6.12,4.11,6.44,0a354.27,354.27,0,0,1,5.53-39.59c.24-1.25.5-2.5.76-3.75a2.49,2.49,0,0,0,2.39-1.68A394.89,394.89,0,0,0,750.91,412c5.34-26.59,5.32-53.93,10.91-80.43.83-3.94,1.81-7.85,3-11.71a2.88,2.88,0,0,0,3.27,1.52A2.83,2.83,0,0,0,770,318c-.43-3-.85-6-1.28-9a8.31,8.31,0,0,1,1.9-2.5c3.09-2.62,5.21.27,6.32,3.13,1.72,4.46,2.24,9.77,3.13,14.45.15.76.28,1.53.42,2.29,0,.1,0,.2.06.31.25,1.41.51,2.82.75,4.24-.63,1-1.27,2.8-2.2,3.3-1.34.73-3.78-2.82-4.44-3.83a18.35,18.35,0,0,1-2.43-5.83c-.85-3.44-6.18-2-5.32,1.47,1.23,5,4.79,12.32,10.29,13.77a6,6,0,0,0,5.28-1.2c.4,2.87.78,5.76,1.09,8.65,3,28.38.72,56.66-5.32,84.5-6.79,31.34-17.28,61.74-24,93.11-.87,4,5.34,5.76,6.21,1.71,6.53-30.47,16.59-60,23.41-90.4,5.42-24.19,8.23-48.73,7.26-73.39a13.36,13.36,0,0,0,3.66,1.78c.38,3.19.63,6.38.91,9.52a284.86,284.86,0,0,1,0,51.83C794,443.41,790,460.59,787,477.86c-1.48,8.57-2.78,17.17-3.65,25.83-.84,8.45-.72,16.91-1.37,25.36-1.25,16.36-7.37,31.84-10.43,47.87-.78,4.05,5.43,5.79,6.21,1.72,2.68-14.06,7.72-27.61,9.79-41.78,1.21-8.26,1-16.55,1.56-24.86.42-6.75,1.19-13.47,2.15-20.15,9.45-11.16,12.89-25.07,15.39-39.16,1.3-7.29,2.42-14.63,4.23-21.82.33-1.35.71-2.69,1.1-4,.87,4,3,7.28,7.32,8.75A339,339,0,0,1,813.78,481c-4.48,24.17-9.26,48.6-15.57,72.36a429.76,429.76,0,0,1-24.88,68.72c-10.21,22.28-22.49,43.21-35,64.24a340.21,340.21,0,0,0-33,75.31c-1.2,4,5,5.68,6.21,1.71a332.47,332.47,0,0,1,30.15-70c12.09-21,24.68-41.41,35-63.35a447.57,447.57,0,0,0,25.87-68.29c6.73-23.65,11.35-48,16.09-72.16C824.09,462,827.54,434.21,825.44,406.1Zm-34.37-53.5a2.66,2.66,0,0,0-.73-1.82c-.16-1.68-.33-3.37-.52-5.06.26.55.53,1.09.77,1.64a49.71,49.71,0,0,1,3.21,10.71A7.5,7.5,0,0,1,791.07,352.6Zm26.8,59.86a10.68,10.68,0,0,1,1.42-1.77c.34,6.29.41,12.56.26,18.82C815.42,426.24,817,417.33,817.87,412.46Z"/><path d="M754.57,561.56c.45-3.57.94-7.12,1.47-10.68a3.33,3.33,0,0,0-2.25-4c-1.52-.43-3.7.53-4,2.25q-.93,6.18-1.7,12.39c-.22,1.74,1.64,3.2,3.22,3.22C753.27,564.8,754.36,563.28,754.57,561.56Z"/><path d="M599.08,700.53c-5.88-16.64-12.39-33.21-16.39-50.43-7.89-34-7.61-69.22-6.62-103.93.12-4.15-6.32-4.14-6.44,0-1,35.29-1.17,71.05,6.85,105.64,4.14,17.82,10.91,35,17,52.19,6.2,17.49,12.73,34.84,20,51.93,1.61,3.8,7.16.52,5.56-3.25C611.76,735.53,605.28,718.08,599.08,700.53Z"/><path d="M694.62,432.73c-1.33,15.83-5.07,31.31-10.12,46.34-4.68,13.93-9.21,28.1-15.57,41.37-5.67,11.82-13.88,28.47-27.49,32.49-11.75,3.47-20.81-7.87-23.75-17.8C611.23,513.29,619,491,619.4,469c.23-11.61-1.62-23.48-7.71-33.54-2.75-4.55-6.28-9.62-11.53-11.38-4.22-1.4-9-.7-12,2.81-4.76,5.63-6.5,13.56-8.42,20.49a242.23,242.23,0,0,0-5.36,24.07A304.26,304.26,0,0,0,570.29,522c0,4.14,6.43,4.15,6.44,0a297.48,297.48,0,0,1,3.43-46.19c.11-.67.23-1.34.35-2a14.82,14.82,0,0,0,10.23,1.64c3.48-.68,2-6-1.47-5.33a8.54,8.54,0,0,1-7.66-2.42c.93-4.8,2-9.57,3.2-14.3,1.42-5.51,2.68-11.5,5.18-16.68a2.34,2.34,0,0,0,2.46-.78c2-2.2,4.38,5.78,4.72,7a41.53,41.53,0,0,1,1.54,9.85,44.35,44.35,0,0,1-3.19,17.82c-1.29,3.31,4.05,4.75,5.32,1.47a48.42,48.42,0,0,0,1.66-30.61c-1-3.59-2.33-8.19-5.62-10.39a6.66,6.66,0,0,0-2-.91,4.72,4.72,0,0,1,3.94.32c3.25,1.47,5.51,5.29,7.31,8.26a47.25,47.25,0,0,1,6,17c2,12.41.12,25.21-1.6,37.54C608,511.68,605.64,536,619,551.07c7.15,8.09,18.47,11.27,28.33,6.41,11.95-5.88,19.45-18.69,25.31-30.08,7.2-14,12-29.1,17.15-43.95a207.63,207.63,0,0,0,11.26-50.72C701.41,428.61,695,428.63,694.62,432.73Z"/><path d="M698.53,415.59a3.27,3.27,0,0,0-3.22,3.22v4a3.22,3.22,0,0,0,6.44,0v-4A3.26,3.26,0,0,0,698.53,415.59Z"/><path d="M572.18,530.29a29.42,29.42,0,0,0,.4,7.67"/><path d="M569.76,530.29a34.65,34.65,0,0,0,.48,8.32,2.42,2.42,0,0,0,4.67-1.29,29,29,0,0,1-.31-7c.22-3.11-4.62-3.1-4.84,0Z"/></svg>